<?xml version="1.0" encoding="UTF-8"?>
<svg id="_레이어_1" data-name="레이어 1" xmlns="http://www.w3.org/2000/svg" xmlns:xlink="http://www.w3.org/1999/xlink" viewBox="0 0 50 12.5">
  <defs>
    <style>
      .cls-1 {
        fill: #fff;
      }

      .cls-2 {
        fill: url(#_새_그라디언트_견본_2-4);
      }

      .cls-3 {
        fill: url(#_새_그라디언트_견본_2);
      }

      .cls-4 {
        fill: url(#_새_그라디언트_견본_2-3);
      }

      .cls-5 {
        fill: url(#_새_그라디언트_견본_2-2);
      }
    </style>
    <linearGradient id="_새_그라디언트_견본_2" data-name="새 그라디언트 견본 2" x1="9.07" y1="5.75" x2="9.07" y2=".75" gradientUnits="userSpaceOnUse">
      <stop offset="0" stop-color="#9695ff"/>
      <stop offset=".5" stop-color="#0089ff"/>
      <stop offset="1" stop-color="#3cffd0"/>
    </linearGradient>
    <linearGradient id="_새_그라디언트_견본_2-2" data-name="새 그라디언트 견본 2" x1="1" y1="3.25" x2="7.11" y2="3.25" xlink:href="#_새_그라디언트_견본_2"/>
    <linearGradient id="_새_그라디언트_견본_2-3" data-name="새 그라디언트 견본 2" x1="9.41" y1="6.75" x2="9.41" y2="11.75" xlink:href="#_새_그라디언트_견본_2"/>
    <linearGradient id="_새_그라디언트_견본_2-4" data-name="새 그라디언트 견본 2" x1="1.33" y1="9.25" x2="7.44" y2="9.25" xlink:href="#_새_그라디언트_견본_2"/>
  </defs>
  <g>
    <path class="cls-3" d="M7.66,5.75c.6,0,1.05-.22,1.38-.76,.71-1.15,1.41-2.3,2.11-3.46,.2-.34,.44-.62,.79-.78-.88,0-1.75,0-2.63,0-.58,0-1.03,.26-1.35,.79-.5,.81-1,1.63-1.5,2.44-.08,.12-.15,.24-.24,.38l.89,1.39c.19,0,.34,0,.55,0Z"/>
    <path class="cls-5" d="M6.89,5.74c.09,0,.14,0,.22,0l-.71-1.2s0,0,0,0c-.03-.06-.05-.09-.07-.12-.53-.93-1.07-1.86-1.59-2.8-.33-.58-.78-.88-1.38-.88-.78,0-1.56,0-2.34,0l.89,1.52s0,0,0,0c.06,.11,.12,.2,.17,.28,.31,.53,.62,1.06,.92,1.59l.75,1.28c.11,.19,.22,.32,.5,.32"/>
    <path class="cls-4" d="M7.99,6.75c.58,0,1.05,.21,1.38,.74,.71,1.15,1.41,2.31,2.11,3.47,.2,.34,.44,.62,.79,.78-.88,0-1.75,0-2.63,0-.58,0-1.03-.26-1.35-.79-.5-.81-1-1.63-1.5-2.44-.08-.12-.15-.24-.24-.38l.89-1.38c.18,0,.37,0,.55,0Z"/>
    <path class="cls-2" d="M7.23,6.75h.21l-.71,1.2s0,0,0,0c-.03,.06-.05,.09-.07,.12-.53,.93-1.07,1.87-1.59,2.8-.33,.58-.78,.89-1.38,.88-.78,0-1.56,0-2.34,0l.89-1.52s0,0,0,0c.06-.11,.12-.2,.17-.28,.31-.53,.62-1.06,.92-1.6l.75-1.28c.11-.19,.22-.32,.5-.32"/>
  </g>
  <g>
    <path class="cls-1" d="M16.32,11.46h-1.91V1.2h1.91V11.46Zm5.45-4.4h-5.6v-1.63h5.6v1.63Zm-.15-5.86h1.89V11.46h-1.89V1.2Z"/>
    <path class="cls-1" d="M29.2,11.49c-.87,0-1.63-.17-2.28-.52-.65-.35-1.15-.82-1.51-1.42-.36-.6-.53-1.29-.53-2.07s.17-1.47,.52-2.07c.35-.6,.83-1.07,1.44-1.42,.61-.35,1.31-.52,2.09-.52s1.44,.17,2.04,.51c.6,.34,1.06,.81,1.41,1.41,.34,.61,.51,1.32,.51,2.15,0,.07,0,.15,0,.26,0,.1-.01,.19-.02,.27h-6.52v-1.22h5.55l-.73,.38c0-.44-.08-.83-.27-1.18-.19-.35-.45-.62-.78-.81-.33-.19-.72-.29-1.17-.29s-.83,.1-1.18,.29c-.35,.19-.61,.46-.8,.81-.19,.35-.28,.76-.28,1.22v.29c0,.47,.1,.88,.32,1.25,.21,.36,.51,.64,.9,.84,.39,.2,.84,.3,1.36,.3,.44,0,.84-.07,1.19-.22,.35-.15,.66-.36,.94-.64l1,1.14c-.36,.41-.81,.72-1.34,.94-.53,.22-1.14,.32-1.82,.32Z"/>
    <path class="cls-1" d="M34.21,11.46V1.2h1.82V11.46h-1.82Z"/>
    <path class="cls-1" d="M38.77,3.4c-.34,0-.62-.11-.84-.32-.22-.21-.33-.48-.33-.79,0-.29,.11-.55,.33-.76,.22-.21,.5-.32,.84-.32s.62,.1,.84,.3c.22,.2,.33,.46,.33,.77s-.11,.58-.32,.8c-.21,.22-.5,.33-.85,.33Z"/>
    <rect class="cls-1" x="37.86" y="4.15" width="1.82" height="7.31"/>
    <path class="cls-1" d="M40.87,11.46l3.43-4.59v.99s-3.31-4.41-3.31-4.41h2.05l2.3,3.13h-.78l2.32-3.13h1.98l-3.31,4.42v-1s3.46,4.59,3.46,4.59h-2.08l-2.42-3.34,.78,.1-2.37,3.24h-2.04Z"/>
  </g>
</svg>